<svg width="38" height="38" viewBox="0 0 38 38" fill="none" xmlns="http://www.w3.org/2000/svg">
<path d="M37.125 34.2432H36.5C36.4937 33.8271 36.4054 33.4164 36.24 33.0345C36.0746 32.6527 35.8355 32.3073 35.5363 32.0181C35.1055 31.5817 34.5527 31.286 33.9506 31.17C33.6706 30.5925 33.2336 30.1054 32.6897 29.7647C32.1457 29.4239 31.5169 29.2432 30.875 29.2432C30.2331 29.2432 29.6043 29.4239 29.0603 29.7647C28.5164 30.1054 28.0794 30.5925 27.7994 31.17C27.1973 31.286 26.6445 31.5817 26.2137 32.0181C25.9145 32.3073 25.6754 32.6527 25.51 33.0345C25.3446 33.4164 25.2563 33.8271 25.25 34.2432H17.75V19.8682C17.75 19.7024 17.6842 19.5434 17.5669 19.4262C17.4497 19.309 17.2908 19.2432 17.125 19.2432H8.375C8.20924 19.2432 8.05027 19.309 7.93306 19.4262C7.81585 19.5434 7.75 19.7024 7.75 19.8682V34.2432H5.25V16.9734L19 5.67718L32.75 16.9734V27.9932C32.75 28.1589 32.8158 28.3179 32.9331 28.4351C33.0503 28.5523 33.2092 28.6182 33.375 28.6182C33.5408 28.6182 33.6997 28.5523 33.8169 28.4351C33.9342 28.3179 34 28.1589 34 27.9932V18.0003L34.6094 18.501C34.7366 18.6056 34.9 18.6557 35.0639 18.6405C35.2279 18.6253 35.3792 18.546 35.485 18.4198L37.6038 15.8948C37.6569 15.8315 37.6969 15.7583 37.7215 15.6794C37.7461 15.6006 37.7549 15.5176 37.7472 15.4353C37.7396 15.3531 37.7157 15.2731 37.677 15.2001C37.6383 15.1272 37.5855 15.0626 37.5217 15.0101L34 12.1172V1.74316C33.9997 1.41175 33.8679 1.09399 33.6335 0.859646C33.3992 0.625297 33.0814 0.493495 32.75 0.493164H27.75C27.4186 0.493495 27.1008 0.625297 26.8665 0.859646C26.6321 1.09399 26.5003 1.41175 26.5 1.74316V5.95646L20.5048 1.0318C20.0758 0.694335 19.5458 0.510865 19 0.510865C18.4542 0.510865 17.9242 0.694335 17.4952 1.0318L0.478269 15.01C0.414452 15.0625 0.361665 15.1271 0.322958 15.2001C0.284251 15.2731 0.260392 15.353 0.252759 15.4353C0.245126 15.5175 0.253871 15.6005 0.278488 15.6794C0.303106 15.7582 0.343107 15.8314 0.396181 15.8947L2.51501 18.4197C2.62079 18.5459 2.77212 18.6253 2.93609 18.6405C3.10005 18.6557 3.26339 18.6055 3.39056 18.5009L4 18.0003V34.2432H0.875C0.70924 34.2432 0.550268 34.309 0.433058 34.4262C0.315848 34.5434 0.25 34.7024 0.25 34.8682V37.3682C0.25 37.5339 0.315848 37.6929 0.433058 37.8101C0.550268 37.9273 0.70924 37.9932 0.875 37.9932H37.125C37.2908 37.9932 37.4497 37.9273 37.5669 37.8101C37.6842 37.6929 37.75 37.5339 37.75 37.3682V34.8682C37.75 34.7024 37.6842 34.5434 37.5669 34.4262C37.4497 34.309 37.2908 34.2432 37.125 34.2432ZM27.75 1.74316H32.75V11.0904L27.75 6.98322V1.74316ZM3.075 17.1426L1.75971 15.5753L18.2886 1.99798C18.4913 1.83817 18.7419 1.75125 19 1.75125C19.2581 1.75125 19.5087 1.83817 19.7114 1.99798L36.2403 15.5753L34.925 17.1426L19.3967 4.38538C19.285 4.29343 19.1447 4.24316 19 4.24316C18.8553 4.24316 18.715 4.29343 18.6033 4.38538L3.075 17.1426ZM27.0911 32.9086C27.3843 32.593 27.7896 32.4049 28.22 32.385C28.3513 32.3869 28.4799 32.3475 28.5876 32.2722C28.6952 32.1969 28.7764 32.0897 28.8196 31.9656C28.9655 31.5363 29.2422 31.1634 29.6108 30.8993C29.9794 30.6352 30.4215 30.4932 30.875 30.4932C31.3285 30.4932 31.7706 30.6352 32.1392 30.8993C32.5078 31.1634 32.7845 31.5363 32.9304 31.9656C32.9722 32.0905 33.0531 32.1987 33.161 32.2742C33.269 32.3497 33.3983 32.3885 33.53 32.385C33.9593 32.4094 34.363 32.5967 34.6589 32.9086C34.8403 33.0813 34.9859 33.288 35.0873 33.517C35.1888 33.746 35.2441 33.9928 35.25 34.2432H26.5C26.5059 33.9928 26.5612 33.746 26.6627 33.517C26.7641 33.288 26.9097 33.0813 27.0911 32.9086ZM9 20.4932H16.5V34.2432H9V20.4932ZM36.5 36.7432H1.5V35.4932H36.5V36.7432ZM20.875 19.2432C20.7092 19.2432 20.5503 19.309 20.4331 19.4262C20.3158 19.5434 20.25 19.7024 20.25 19.8682V27.3682C20.25 27.5339 20.3158 27.6929 20.4331 27.8101C20.5503 27.9273 20.7092 27.9932 20.875 27.9932H29.625C29.7908 27.9932 29.9497 27.9273 30.0669 27.8101C30.1842 27.6929 30.25 27.5339 30.25 27.3682V19.8682C30.25 19.7024 30.1842 19.5434 30.0669 19.4262C29.9497 19.309 29.7908 19.2432 29.625 19.2432H20.875ZM29 22.9932H25.875V20.4932H29V22.9932ZM24.625 20.4932V22.9932H21.5V20.4932H24.625ZM21.5 24.2432H24.625V26.7432H21.5V24.2432ZM25.875 26.7432V24.2432H29V26.7432H25.875Z" fill="#494949"/>
</svg>
