<svg width="24" height="25" viewBox="0 0 24 25" fill="none" xmlns="http://www.w3.org/2000/svg">
<path d="M18 2.91309V4.91309M6 2.91309V4.91309" stroke="#737373" stroke-width="1.5" stroke-linecap="round" stroke-linejoin="round"/>
<path d="M11.9955 13.9131H12.0045M11.9955 17.9131H12.0045M15.991 13.9131H16M8 13.9131H8.00897M8 17.9131H8.00897" stroke="#737373" stroke-width="2" stroke-linecap="round" stroke-linejoin="round"/>
<path d="M3.5 8.91309H20.5" stroke="#737373" stroke-width="1.5" stroke-linecap="round" stroke-linejoin="round"/>
<path d="M2.5 13.1563C2.5 8.79903 2.5 6.62037 3.75212 5.26673C5.00424 3.91309 7.01949 3.91309 11.05 3.91309H12.95C16.9805 3.91309 18.9958 3.91309 20.2479 5.26673C21.5 6.62037 21.5 8.79903 21.5 13.1563V13.6699C21.5 18.0272 21.5 20.2058 20.2479 21.5595C18.9958 22.9131 16.9805 22.9131 12.95 22.9131H11.05C7.01949 22.9131 5.00424 22.9131 3.75212 21.5595C2.5 20.2058 2.5 18.0272 2.5 13.6699V13.1563Z" stroke="#737373" stroke-width="1.5" stroke-linecap="round" stroke-linejoin="round"/>
<path d="M3 8.91309H21" stroke="#737373" stroke-width="1.5" stroke-linecap="round" stroke-linejoin="round"/>
</svg>
