<svg width="24" height="25" viewBox="0 0 24 25" fill="none" xmlns="http://www.w3.org/2000/svg">
<path d="M18 2.1875V4.1875M6 2.1875V4.1875" stroke="#737373" stroke-width="1.5" stroke-linecap="round" stroke-linejoin="round"/>
<path d="M11.9955 13.1875H12.0045M11.9955 17.1875H12.0045M15.991 13.1875H16M8 13.1875H8.00897M8 17.1875H8.00897" stroke="#737373" stroke-width="2" stroke-linecap="round" stroke-linejoin="round"/>
<path d="M3.5 8.1875H20.5" stroke="#737373" stroke-width="1.5" stroke-linecap="round" stroke-linejoin="round"/>
<path d="M2.5 12.4307C2.5 8.07344 2.5 5.89478 3.75212 4.54114C5.00424 3.1875 7.01949 3.1875 11.05 3.1875H12.95C16.9805 3.1875 18.9958 3.1875 20.2479 4.54114C21.5 5.89478 21.5 8.07344 21.5 12.4307V12.9443C21.5 17.3016 21.5 19.4802 20.2479 20.8339C18.9958 22.1875 16.9805 22.1875 12.95 22.1875H11.05C7.01949 22.1875 5.00424 22.1875 3.75212 20.8339C2.5 19.4802 2.5 17.3016 2.5 12.9443V12.4307Z" stroke="#737373" stroke-width="1.5" stroke-linecap="round" stroke-linejoin="round"/>
<path d="M3 8.1875H21" stroke="#737373" stroke-width="1.5" stroke-linecap="round" stroke-linejoin="round"/>
</svg>
