<svg width="41" height="41" viewBox="0 0 41 41" fill="none" xmlns="http://www.w3.org/2000/svg">
<path d="M35.5 23.5785L35.4998 15.654C35.4988 13.7618 35.4983 12.8158 35.0383 12.0225C34.5783 11.2293 33.7573 10.7661 32.1153 9.83963L23.74 5.11403C22.1563 4.22046 21.3645 3.77368 20.5 3.77368C19.6355 3.77368 18.8437 4.22046 17.26 5.11403L8.88467 9.83963C7.2427 10.7661 6.42172 11.2293 5.96167 12.0225C5.5016 12.8158 5.50115 13.7618 5.50022 15.654L5.5 23.5785C5.5 29.956 5.5 33.1447 7.45262 35.1258C9.40525 37.107 12.5479 37.107 18.8333 37.107H22.1667C28.452 37.107 31.5948 37.107 33.5473 35.1258C35.5 33.1447 35.5 29.956 35.5 23.5785Z" stroke="#737373" stroke-width="1.5" stroke-linecap="round"/>
<path d="M17.1667 22.1071H13.8334M27.1667 22.1071H23.8334M17.1667 15.4404H13.8334M17.1667 28.7738H13.8334M27.1667 15.4404H23.8334M27.1667 28.7738H23.8334" stroke="#737373" stroke-width="1.5" stroke-linecap="round"/>
</svg>
