<svg width="48" height="48" viewBox="0 0 48 48" fill="none" xmlns="http://www.w3.org/2000/svg">
<path d="M32.25 39.6763H27.75V35.5918L34.4153 31.4263L27.75 27.2608V22.4263H32.25V16.4263H27.75V11.1763H33.75V0.67627H20.25V11.1763H26.25V16.4263H21.75V18.6763H15V20.1763H21.75V22.4263H26.25V27.2608L19.5848 31.4263L26.25 35.5918V39.6763H21.75C20.5095 39.6763 19.5 40.6858 19.5 41.9263V44.9263C19.5 46.1668 20.5095 47.1763 21.75 47.1763H32.25C33.4905 47.1763 34.5 46.1668 34.5 44.9263V41.9263C34.5 40.6858 33.4905 39.6763 32.25 39.6763ZM21.75 2.17627H32.25V9.67627H21.75V2.17627ZM23.25 17.9263H30.75V20.9263H23.25V17.9263ZM27 28.5605L31.5847 31.4263L27 34.292L22.4152 31.4263L27 28.5605ZM33 44.9263C33 45.3395 32.6632 45.6763 32.25 45.6763H21.75C21.3368 45.6763 21 45.3395 21 44.9263V41.9263C21 41.513 21.3368 41.1763 21.75 41.1763H32.25C32.6632 41.1763 33 41.513 33 41.9263V44.9263Z" fill="#1C1C1C"/>
<path d="M13.7197 40.9565L15.4395 42.6763H8.862C8.6355 42.041 8.13525 41.5408 7.5 41.3143V25.4263H6V41.3143C5.12925 41.6248 4.5 42.4498 4.5 43.4263C4.5 44.6668 5.5095 45.6763 6.75 45.6763C7.7265 45.6763 8.5515 45.047 8.862 44.1763H15.4395L13.7197 45.896L14.7803 46.9565L18.3105 43.4263L14.7803 39.896L13.7197 40.9565ZM6.75 44.1763C6.33675 44.1763 6 43.8395 6 43.4263C6 43.013 6.33675 42.6763 6.75 42.6763C7.16325 42.6763 7.5 43.013 7.5 43.4263C7.5 43.8395 7.16325 44.1763 6.75 44.1763Z" fill="#1C1C1C"/>
<path d="M45.75 29.3143V8.03827C46.6207 7.72777 47.25 6.90277 47.25 5.92627C47.25 4.68577 46.2405 3.67627 45 3.67627C44.0235 3.67627 43.1985 4.30552 42.888 5.17627H35.25V6.67627H42.888C43.1145 7.31152 43.6147 7.81177 44.25 8.03827V29.315C43.6147 29.5415 43.1145 30.0418 42.888 30.677H37.8105L39.5302 28.9573L38.4697 27.8968L34.9395 31.4263L38.4697 34.9565L39.5302 33.896L37.8105 32.1763H42.888C43.1985 33.047 44.0235 33.6763 45 33.6763C46.2405 33.6763 47.25 32.6668 47.25 31.4263C47.25 30.4498 46.6207 29.6248 45.75 29.3143ZM45 5.17627C45.4132 5.17627 45.75 5.51302 45.75 5.92627C45.75 6.33952 45.4132 6.67627 45 6.67627C44.5867 6.67627 44.25 6.33952 44.25 5.92627C44.25 5.51302 44.5867 5.17627 45 5.17627ZM45 32.1763C44.5867 32.1763 44.25 31.8395 44.25 31.4263C44.25 31.013 44.5867 30.6763 45 30.6763C45.4132 30.6763 45.75 31.013 45.75 31.4263C45.75 31.8395 45.4132 32.1763 45 32.1763Z" fill="#1C1C1C"/>
<path d="M13.2907 19.4263L6.74998 14.7545L0.209229 19.4263L6.74998 24.098L13.2907 19.4263ZM6.74998 16.598L10.7092 19.4263L6.74998 22.2545L2.79073 19.4263L6.74998 16.598Z" fill="#1C1C1C"/>
<path d="M23.25 3.67627H30.75V5.17627H23.25V3.67627Z" fill="#1C1C1C"/>
<path d="M23.25 6.67627H27.75V8.17627H23.25V6.67627Z" fill="#1C1C1C"/>
<path d="M29.25 6.67627H30.75V8.17627H29.25V6.67627Z" fill="#1C1C1C"/>
<path d="M42 42.6763H43.5V44.1763H42V42.6763Z" fill="#1C1C1C"/>
<path d="M39 42.6763H40.5V44.1763H39V42.6763Z" fill="#1C1C1C"/>
<path d="M36 42.6763H37.5V44.1763H36V42.6763Z" fill="#1C1C1C"/>
<path d="M14.25 6.67627H15.75V8.17627H14.25V6.67627Z" fill="#1C1C1C"/>
<path d="M17.25 6.67627H18.75V8.17627H17.25V6.67627Z" fill="#1C1C1C"/>
<path d="M11.25 6.67627H12.75V8.17627H11.25V6.67627Z" fill="#1C1C1C"/>
</svg>
