<svg width="41" height="41" viewBox="0 0 41 41" fill="none" xmlns="http://www.w3.org/2000/svg">
<path d="M35.1233 30.5068C36.3722 30.5068 37.3655 29.721 38.2575 28.622C40.0832 26.3725 37.0855 24.5748 35.9423 23.6945C34.78 22.7995 33.4823 22.2925 32.1667 22.1735M30.5 18.8402C32.8012 18.8402 34.6667 16.9747 34.6667 14.6735C34.6667 12.3723 32.8012 10.5068 30.5 10.5068" stroke="#737373" stroke-width="1.5" stroke-linecap="round"/>
<path d="M5.87656 30.5068C4.62772 30.5068 3.63441 29.721 2.74254 28.622C0.916771 26.3725 3.91441 24.5748 5.05771 23.6945C6.21991 22.7995 7.51759 22.2925 8.83329 22.1735M9.66662 18.8402C7.36544 18.8402 5.49996 16.9747 5.49996 14.6735C5.49996 12.3723 7.36544 10.5068 9.66662 10.5068" stroke="#737373" stroke-width="1.5" stroke-linecap="round"/>
<path d="M13.973 25.6921C12.27 26.7451 7.80494 28.8953 10.5245 31.5858C11.8529 32.9001 13.3325 33.8401 15.1927 33.8401H25.8073C27.6675 33.8401 29.147 32.9001 30.4755 31.5858C33.195 28.8953 28.73 26.7451 27.027 25.6921C23.0335 23.2228 17.9665 23.2228 13.973 25.6921Z" stroke="#737373" stroke-width="1.5" stroke-linecap="round" stroke-linejoin="round"/>
<path d="M26.3333 13.0069C26.3333 16.2286 23.7216 18.8403 20.5 18.8403C17.2783 18.8403 14.6666 16.2286 14.6666 13.0069C14.6666 9.78525 17.2783 7.17358 20.5 7.17358C23.7216 7.17358 26.3333 9.78525 26.3333 13.0069Z" stroke="#737373" stroke-width="1.5"/>
</svg>
