<svg width="24" height="25" viewBox="0 0 24 25" fill="none" xmlns="http://www.w3.org/2000/svg">
<path d="M12.0063 22.9131C17.5292 22.9131 22.0063 18.4359 22.0063 12.9131C22.0063 7.39024 17.5292 2.91309 12.0063 2.91309C6.4835 2.91309 2.00635 7.39024 2.00635 12.9131C2.00635 18.4359 6.4835 22.9131 12.0063 22.9131Z" stroke="#737373" stroke-width="1.5"/>
<path d="M7.50635 17.9131C9.83805 15.4709 14.1495 15.3559 16.5063 17.9131M14.5014 10.4131C14.5014 11.7938 13.3805 12.9131 11.9978 12.9131C10.6152 12.9131 9.49432 11.7938 9.49432 10.4131C9.49432 9.03238 10.6152 7.91309 11.9978 7.91309C13.3805 7.91309 14.5014 9.03238 14.5014 10.4131Z" stroke="#737373" stroke-width="1.5" stroke-linecap="round"/>
</svg>
