<svg width="41" height="41" viewBox="0 0 41 41" fill="none" xmlns="http://www.w3.org/2000/svg">
<path d="M31.5269 33.908H32.3439C34.2602 33.908 35.7845 33.0348 37.1532 31.814C40.63 28.7123 32.4569 25.5746 29.6667 25.5746M26.3334 9.02258C26.7119 8.94751 27.1049 8.90796 27.508 8.90796C30.5412 8.90796 33 11.1465 33 13.908C33 16.6694 30.5412 18.908 27.508 18.908C27.1049 18.908 26.7119 18.8685 26.3334 18.7933" stroke="#737373" stroke-width="1.5" stroke-linecap="round"/>
<path d="M7.96885 27.4267C6.0039 28.4797 0.851898 30.6299 3.9898 33.3204C5.52265 34.6347 7.22985 35.5747 9.3762 35.5747H21.6238C23.7702 35.5747 25.4773 34.6347 27.0102 33.3204C30.1482 30.6299 24.9962 28.4797 23.0312 27.4267C18.4233 24.9574 12.5767 24.9574 7.96885 27.4267Z" stroke="#737373" stroke-width="1.5"/>
<path d="M22.1667 13.0746C22.1667 16.7565 19.1819 19.7413 15.5 19.7413C11.8181 19.7413 8.83337 16.7565 8.83337 13.0746C8.83337 9.39273 11.8181 6.40796 15.5 6.40796C19.1819 6.40796 22.1667 9.39273 22.1667 13.0746Z" stroke="#737373" stroke-width="1.5"/>
</svg>
