<svg width="24" height="25" viewBox="0 0 24 25" fill="none" xmlns="http://www.w3.org/2000/svg">
<path d="M12.0063 22.1875C17.5292 22.1875 22.0063 17.7103 22.0063 12.1875C22.0063 6.66465 17.5292 2.1875 12.0063 2.1875C6.4835 2.1875 2.00635 6.66465 2.00635 12.1875C2.00635 17.7103 6.4835 22.1875 12.0063 22.1875Z" stroke="#737373" stroke-width="1.5"/>
<path d="M7.50635 17.1875C9.83805 14.7453 14.1495 14.6303 16.5063 17.1875M14.5014 9.6875C14.5014 11.0682 13.3805 12.1875 11.9978 12.1875C10.6152 12.1875 9.49432 11.0682 9.49432 9.6875C9.49432 8.30679 10.6152 7.1875 11.9978 7.1875C13.3805 7.1875 14.5014 8.30679 14.5014 9.6875Z" stroke="#737373" stroke-width="1.5" stroke-linecap="round"/>
</svg>
